<svg xmlns="http://www.w3.org/2000/svg" viewBox="0 0 128 128"><path d="M127.32 53.67l-8 11.87a2.498 2.498 0 0 1-.21.24 2.285 2.285 0 0 1-.28.34l-.22.19c-.12.112-.247.215-.38.31a.777.777 0 0 1-.2.11c-.158.1-.321.19-.49.27h-.18a3.87 3.87 0 0 1-.58.18h-.19a3.08 3.08 0 0 1-.53.06h-.26a3.608 3.608 0 0 1-.46-.05l-.34-.07-.31-.1-.35-.13-.26-.14-.36-.21-11.81-8a4 4 0 0 1 4.46-6.54l4.89 3.3C106.987 30.316 85.347 12.036 60 12h-.65c-28.719.18-51.854 23.606-51.675 52.325C7.855 93.044 31.281 116.179 60 116h.65a52.22 52.22 0 0 0 44.5-26.18 4.005 4.005 0 0 1 6.94 4A60.26 60.26 0 0 1 60.74 124H60C26.863 123.999.001 97.135.002 63.998.003 30.86 26.867 3.998 60.004 4c28.511.001 53.084 20.065 58.786 48l1.9-2.82a4.002 4.002 0 1 1 6.64 4.47zm-69.74 2.47c-.038-7.677-6.253-13.892-13.93-13.93-10.1 0-12.76 8.08-14.19 12.42l-.18.57a4 4 0 0 0 7.59 2.53l.19-.6c1.55-4.7 2.7-6.92 6.59-6.92a5.94 5.94 0 0 1 5.93 5.93 5 5 0 0 1-1.47 3.56L30.24 77.57a4 4 0 0 0 2.83 6.83h20.51a4 4 0 0 0 0-8H42.72l11.05-11.05a13 13 0 0 0 3.81-9.21zM76.93 80.4v-2.84H63.84a4 4 0 0 1-3.39-6.12l17.09-27.35a4 4 0 0 1 7.39 2.12V80.4a4 4 0 0 1-8 0zm0-10.84v-9.4l-5.87 9.4z"></path></svg>