<svg xmlns="http://www.w3.org/2000/svg" xml:space="preserve" viewBox="0 0 28.3 28.3">
  <path d="M26.1 13.7h-.7V8.5c0-1.5-1.2-2.7-2.7-2.7H5.6C4.1 5.7 2.9 7 2.9 8.5v5.2h-.7c-.9 0-1.6.7-1.6 1.6v4.6c0 .2.2.5.5.5h.7v1.8c0 .2.2.5.5.5s.5-.2.5-.5v-1.8h23v1.8c0 .2.2.5.5.5s.5-.2.5-.5v-1.8h.7c.2 0 .5-.2.5-.5v-4.6c-.3-.9-1-1.6-1.9-1.6zM3.8 8.5c0-1 .8-1.8 1.8-1.8h17.1c1 0 1.8.8 1.8 1.8v5.2H22v-3c0-.9-.7-1.6-1.6-1.6H17c-.9 0-1.6.7-1.6 1.6v3h-2.5v-3c0-.9-.7-1.6-1.6-1.6H7.9c-.9 0-1.6.7-1.6 1.6v3H3.8V8.5zm17.3 5.2h-4.8v-3c0-.4.3-.7.7-.7h3.4c.4 0 .7.3.7.7v3zm-9.1 0H7.2v-3c0-.4.3-.7.7-.7h3.4c.4 0 .7.3.7.7v3zm14.8 5.7H1.5v-4.1c0-.4.3-.7.7-.7H26.1c.4 0 .7.3.7.7v4.1z" style="fill:#fff"/>
</svg>