<svg xmlns="http://www.w3.org/2000/svg" viewBox="0 0 32 32">
  <path d="M32.032 16C32.032 7.499 25.355.528 16.96.031a4.768 4.768 0 0 0-.523-.032c-.052 0-.104.005-.156.007-.093-.002-.186-.007-.281-.007C7.16-.001-.032 7.177-.032 16S7.16 32.001 16 32.001c.094 0 .188-.006.281-.008.052.002.104.008.156.008.176 0 .349-.012.523-.032 8.395-.497 15.072-7.468 15.072-15.969zm-2.983 5.151c-.551-.16-1.935-.507-4.377-.794.202-1.381.313-2.84.313-4.357 0-1.196-.069-2.354-.197-3.469 3.094-.37 4.45-.835 4.54-.867l-.372-1.05A13.905 13.905 0 0 1 30.036 16c0 1.818-.352 3.555-.987 5.151zM8.921 16c0-1.119.074-2.212.21-3.263 1.621.127 3.561.222 5.839.243v6.939a84.833 84.833 0 0 0-5.709.234 25.314 25.314 0 0 1-.34-4.154zm8.046-13.868c2.452.711 4.552 4.115 5.492 8.628-1.512.12-3.332.209-5.492.229V2.132zm-1.996.024v8.832a83.352 83.352 0 0 1-5.502-.226c.96-4.457 3.076-7.836 5.502-8.606zm0 19.757v7.929c-2.263-.718-4.256-3.705-5.293-7.719a84.043 84.043 0 0 1 5.292-.21zm1.996 7.955v-7.955c2.061.02 3.814.102 5.288.217-1.019 4.067-3 7.076-5.288 7.738zm0-9.948v-6.939a79.819 79.819 0 0 0 5.818-.25 26.5 26.5 0 0 1-.126 7.428 79.875 79.875 0 0 0-5.692-.24zM28.588 9.81c-.302.094-1.564.453-4.094.751C23.93 7.563 22.91 5 21.584 3.149a14.116 14.116 0 0 1 7.005 6.661zM11.213 2.831C9.581 4.704 8.25 7.399 7.522 10.585c-2.265-.245-3.623-.534-4.166-.665a14.1 14.1 0 0 1 7.856-7.088zm-8.599 8.956c.385.104 1.841.467 4.549.766a24.87 24.87 0 0 0 .143 7.781c-2.325.251-3.755.552-4.396.706a13.914 13.914 0 0 1-.944-5.041c0-1.467.228-2.883.649-4.213zm1.17 11.099c.727-.154 2.029-.39 3.956-.591.759 2.803 1.993 5.175 3.473 6.874a14.105 14.105 0 0 1-7.429-6.282zm17.799 5.963c1.195-1.665 2.14-3.907 2.728-6.525 1.982.227 3.226.494 3.853.652a14.103 14.103 0 0 1-6.581 5.873z"/>
</svg>