<svg xmlns="http://www.w3.org/2000/svg" xml:space="preserve" style="fill-rule:evenodd;clip-rule:evenodd;stroke-linejoin:round;stroke-miterlimit:2" viewBox="0 0 142 142">
  <path d="M70.889 0C31.81 0 0 31.765 0 70.844c0 39.078 31.81 70.888 70.889 70.888 39.078 0 70.843-31.81 70.843-70.888C141.732 31.765 109.967 0 70.889 0Zm40.334 125.85c-2.781 2.019-5.653 3.858-8.704 5.473 5.519-14.536 2.917-30.419-1.615-40.918-1.974-4.531-4.307-8.076-6.73-10.319a14.18 14.18 0 0 0 4.711-1.525c9.018 8.3 16.152 27.233 12.338 47.289ZM42.847 78.561c1.481.762 3.051 1.301 4.756 1.525-2.423 2.243-4.756 5.788-6.73 10.319-4.576 10.499-7.134 26.382-1.615 40.918a64.784 64.784 0 0 1-8.704-5.518c-3.859-20.011 3.32-38.944 12.293-47.244Zm26.651-50.385h-3.634c-.629-4.89-4.577-16.69-14.806-22.657a72.652 72.652 0 0 1 7.178-1.705c5.295 3.634 10.858 13.594 11.262 24.362ZM83.541 3.814a75.734 75.734 0 0 1 7.178 1.705C80.49 11.486 76.542 23.286 75.914 28.176h-3.635c.404-10.768 5.923-20.728 11.262-24.362Zm7.313 24.362h-5.339c3.634-9.153 10.723-14.761 20.235-15.928 1.839 1.122 3.634 2.289 5.384 3.59-5.968.807-15.075 3.544-20.28 12.338Zm-8.166 0h-4.172c.718-4.801 4.935-16.69 15.568-21.446a64.62 64.62 0 0 1 8.076 3.499c-9.197 2.154-15.972 8.39-19.472 17.947Zm-19.427 0h-4.217c-3.455-9.557-10.23-15.793-19.427-17.947a64.62 64.62 0 0 1 8.076-3.499c10.588 4.756 14.85 16.69 15.568 21.446Zm-6.999 0h-5.384c-5.159-8.794-14.267-11.531-20.234-12.338 1.749-1.301 3.544-2.468 5.384-3.59 9.511 1.167 16.6 6.775 20.234 15.928Zm-7.223 2.557h43.699a9.416 9.416 0 0 1 9.422 9.108c.18 5.205-3.903 9.557-9.063 9.781H79.413v23.959H62.364V49.622H48.68c-2.513-.135-4.846-1.167-6.551-3.006-1.705-1.884-2.602-4.262-2.512-6.775a9.386 9.386 0 0 1 9.422-9.108Zm73.266 6.73c3.993 1.526 8.211 3.859 11.172 6.147 1.436 3.32 2.557 6.73 3.455 10.274-5.07-5.429-11.262-9.197-17.184-11.665a34.819 34.819 0 0 0 2.557-4.756Zm.987-2.378c.673-2.019 1.032-4.127 1.257-6.281a69.988 69.988 0 0 1 6.685 10.185c-2.513-1.481-5.25-2.872-7.942-3.904Zm-6.012 6.192c-4.8-1.75-9.287-2.602-12.697-2.737-.449-3.096-1.974-5.743-4.262-7.627 3.32-2.782 12.159-5.07 21.894-4.352-.224 5.339-1.884 10.274-4.935 14.716ZM91.033 85.246a9.44 9.44 0 0 1-2.512 6.775 9.368 9.368 0 0 1-6.595 3.006h-.673c-4.756-.18-8.615-3.949-9.018-8.615l9.063-10.229c5.069-.135 9.556 3.858 9.735 9.063Zm-20.144 53.48c-12.339-10.857-13.595-26.919-11.307-37.328 1.974 4.307 6.282 7.313 11.307 7.313s9.332-3.006 11.261-7.313c2.333 10.409 1.032 26.515-11.261 37.328Zm-20.145-53.48c.179-5.205 4.531-9.243 9.736-9.063l9.063 10.229c-.404 4.666-4.263 8.435-9.019 8.615h-.717c-5.205-.225-9.243-4.577-9.063-9.781Zm-.584-33.067h9.602v2.423a4.807 4.807 0 0 1-4.801 4.801 4.807 4.807 0 0 1-4.801-4.801v-2.423Zm20.729 38.81c1.839 3.634 5.473 6.191 9.691 6.55-.628 4.846-4.711 8.614-9.691 8.614-4.981 0-9.108-3.768-9.692-8.614 4.218-.359 7.852-2.916 9.692-6.55Zm0-6.955-6.955-7.896h13.909l-6.954 7.896Zm20.728-31.855v2.423a4.807 4.807 0 0 1-4.801 4.801 4.807 4.807 0 0 1-4.801-4.801v-2.423h9.602ZM37.194 38.54c-3.41.135-7.896.987-12.742 2.737-3.006-4.442-4.666-9.377-4.89-14.716 9.736-.718 18.574 1.57 21.849 4.352-2.243 1.884-3.813 4.531-4.217 7.627Zm-18.709-3.455c-2.692 1.032-5.474 2.423-7.941 3.904a73.434 73.434 0 0 1 6.64-10.185c.269 2.154.628 4.262 1.301 6.281ZM8.3 43.61c2.961-2.288 7.179-4.621 11.172-6.147a34.819 34.819 0 0 0 2.557 4.756c-5.922 2.468-12.114 6.236-17.183 11.665C5.743 50.34 6.865 46.93 8.3 43.61ZM3.634 59.358c8.884-12.069 24.363-17.767 33.47-18.216a11.882 11.882 0 0 0 1.212 4.307C24.183 47.513 9.781 58.82 2.647 69.991c.045-3.634.404-7.178.987-10.633Zm36.207-11.486c.135.135.269.314.404.494a12.218 12.218 0 0 0 3.365 2.512C25.394 56.172 9.96 70.799 4.666 87.22a64.577 64.577 0 0 1-1.839-12.204c5.653-11.8 21.984-25.529 37.014-27.144Zm-2.557 8.121c-1.705 2.288-2.737 5.07-2.872 8.121-11.441 6.191-21.311 21.311-24.541 37.239a72.864 72.864 0 0 1-3.859-9.243c3.096-15.164 15.479-29.208 31.272-36.117ZM34.547 67.03c.224 1.705.763 3.32 1.525 4.801C24.587 82.24 18.35 97.135 18.126 114.14c-2.333-2.827-4.397-5.923-6.236-9.108C14.133 89.194 23.42 73.67 34.547 67.03Zm2.378-2.109c0-6.326 4.621-11.53 10.633-12.517v2.198a7.41 7.41 0 0 0 7.403 7.403c1.84 0 3.5-.718 4.801-1.839v13.459c-3.365.09-6.416 1.571-8.525 3.994h-1.615c-6.999 0-12.697-5.699-12.697-12.698Zm6.326 26.516c1.57-3.544 3.365-6.505 5.204-8.524-.179.718-.269 1.48-.314 2.243-.089 2.647.718 5.16 2.199 7.268-6.192 12.159-5.249 30.016 2.064 44.104a70.517 70.517 0 0 1-9.647-3.5c-6.64-14.492-3.948-31.406.494-41.591Zm8.973 3.096c1.66 1.481 3.634 2.468 5.788 2.827-3.41 10.274-3.455 28.759 9.332 41.591a65.94 65.94 0 0 1-11.575-1.571c-7.807-13.28-9.153-30.823-3.545-42.847Zm31.541 2.827c2.154-.359 4.128-1.346 5.788-2.827 5.608 12.024 4.217 29.567-3.589 42.847a65.391 65.391 0 0 1-11.576 1.571c12.787-12.832 12.742-31.317 9.377-41.591Zm7.672-4.936c1.481-2.108 2.288-4.621 2.199-7.268-.045-.763-.18-1.525-.314-2.243 1.794 2.019 3.634 4.98 5.204 8.524 4.397 10.185 7.134 27.099.494 41.591a73.343 73.343 0 0 1-9.691 3.5c7.358-14.088 8.3-31.945 2.108-44.104Zm.718-14.805H90.54c-2.109-2.378-5.115-3.904-8.525-3.994V60.166c1.302 1.121 2.962 1.839 4.801 1.839a7.41 7.41 0 0 0 7.403-7.403v-2.198c6.012.987 10.633 6.191 10.633 12.517 0 6.999-5.698 12.698-12.697 12.698ZM107.23 67.03c11.082 6.64 20.414 22.164 22.658 38.002-1.84 3.185-3.904 6.281-6.237 9.108-.224-17.005-6.505-31.9-17.946-42.309a14.677 14.677 0 0 0 1.525-4.801Zm.135-2.916a15.585 15.585 0 0 0-2.872-8.166c15.748 6.91 28.131 20.953 31.227 36.162-1.032 3.186-2.333 6.282-3.813 9.243-3.231-15.928-13.101-31.048-24.542-37.239Zm-9.153-13.236a13.179 13.179 0 0 0 3.679-3.006c15.075 1.615 31.406 15.344 37.06 27.144a72.866 72.866 0 0 1-1.84 12.204c-5.294-16.421-20.773-31.048-38.899-36.342Zm5.249-5.429a10.596 10.596 0 0 0 1.167-4.307c9.108.449 24.631 6.147 33.47 18.216a63.769 63.769 0 0 1 1.032 10.633c-7.134-11.171-21.581-22.478-35.669-24.542Zm16.87-21.535c-9.467-.314-18.619 1.974-22.209 5.563-1.256-.628-2.647-1.032-4.172-1.211 5.698-8.256 15.568-9.871 20.279-10.14 2.154 1.795 4.173 3.769 6.102 5.788ZM80.086 3.275c-3.813 3.5-7.358 9.467-9.197 16.421-1.84-6.954-5.384-12.921-9.198-16.421 3.006-.404 6.057-.718 9.198-.718 3.14 0 6.191.314 9.197.718ZM27.548 18.126c4.666.269 14.536 1.884 20.279 10.14a13.095 13.095 0 0 0-4.217 1.211c-3.544-3.589-12.697-5.877-22.164-5.563 1.929-2.019 3.948-3.993 6.102-5.788Zm-6.865 98.84c-.493-17.273 5.474-32.393 16.78-42.892.898 1.167 1.93 2.243 3.096 3.096-9.018 8.749-15.927 26.695-13.011 46.391-2.468-2.019-4.711-4.262-6.865-6.595Zm93.546 6.595c2.872-19.696-3.993-37.597-13.056-46.391 1.212-.853 2.244-1.929 3.141-3.096 11.306 10.499 17.273 25.619 16.78 42.892-2.154 2.333-4.442 4.576-6.865 6.595Z" style="fill:#e3ae7d;fill-rule:nonzero"/>
</svg>