<svg xmlns="http://www.w3.org/2000/svg" viewBox="0 0 24 24"><path d="M10.413 17.368l3.284 2.09c.947.713 2.357.511 3.103-.483.292-.39.45-.863.45-1.35v-5.25a.75.75 0 0 0-1.5 0v5.25a.75.75 0 0 1-1.2.6l-3.331-2.123a.75.75 0 0 0-.806 1.266zM17.25 5.625a2.25 2.25 0 0 0-3.6-1.8L7.097 7.992l.403-.117h-3a2.25 2.25 0 0 0-2.25 2.25v3a2.25 2.25 0 0 0 2.25 2.25h.625a.75.75 0 0 0 0-1.5H4.5a.75.75 0 0 1-.75-.75v-3a.75.75 0 0 1 .75-.75h3a.75.75 0 0 0 .403-.117l6.6-4.2A.816.816 0 0 1 15 4.875a.75.75 0 0 1 .75.75.75.75 0 0 0 1.5 0zM3.48 20.451l18-15a.75.75 0 0 0-.96-1.152l-18 15a.75.75 0 0 0 .96 1.152z"></path></svg>