<svg xmlns="http://www.w3.org/2000/svg" xml:space="preserve" style="fill-rule:evenodd;clip-rule:evenodd;stroke-linejoin:round;stroke-miterlimit:2" viewBox="0 0 35 37">
  <path d="M34.3 17.498c0 .973-.083 2.013-.522 2.878l-.412.739c-.3.528-.709.951-1.139 1.361-.37.356-.831.613-1.277.873l-.808.343c-.425.133-1.493.241-1.773.188-.254-.049-.491-.009-.741-.06-.239-.048-.384-.077-.609-.141a4.653 4.653 0 0 1-1.75-.951c-.282-.247-.678-.784-.813-1.136-.299-.777-.561-1.591-.658-2.442-.087-.761-.15-1.441-.149-2.201 0-.329-.048-.49-.052-.749l.052-2.602.541.06c.153.022.346.102.509.141-.051.19-.276.603-.38.969-.293 1.02-.177 2.067.1 3.06.415 1.488 1.523 2.517 3.01 2.84l.792.102c.295.009.838-.05 1.16-.141.093-.026.227-.113.339-.16.182-.076.171-.087.319-.181.153-.098.156-.077.298-.202.347-.305.42-.375.703-.746.422-.552.61-1.251.61-2.042 0-.172-.037-.193-.05-.349-.46 0-.224.151-.291.559-.045.28-.018.435-.079.721-.093.435-.3.754-.559 1.09l-1.171.88c-.146.074-.108.065-.297.103-.21.043-.451.146-.704.146-1.014 0-1.83-.35-2.487-1.012-.052-.053-.072-.075-.126-.124a2.807 2.807 0 0 1-.571-.73c-.323-.564-.396-.817-.597-1.402-.296-.86-.205-1.933.096-2.767.059-.163.065-.27.135-.415.142.038.2.097.32.18l.28.22c.189-.127.404-.235.203-.402-.155-.131-.347-.3-.553-.348.074-.317.352-.501.559-.741l.41-.389c.441-.33.913-.56 1.423-.729 1.012-.335 2.084-.182 3.075.242l1.621 1.03c.124.103.134.181.233.267.538.471 1.076 1.26 1.312 1.938l.139.411c.204.613.329 1.159.329 1.821Zm-13.001-3.85c-.758.176-2.18.969-2.55 1.001.172-.741.264-1.556.42-2.331.08-.397.144-.734.24-1.11.269-1.067.49-2.21.923-3.227.203-.476.743-1.457 1.217-1.584l.052.898c.073.623.074.681 0 1.306l-.051 1.448c.001.234-.03.246-.048.402-.018.149.005.344-.001.499-.008.223-.047.173-.055.396l-.094 1.355a7.683 7.683 0 0 0-.053.947Zm-12.351-6.3c0-1.183-.035-1.325.357-2.444l.342-.857c.18 0 .213.001.371.031l1.218.131c1.211.206 2.262.658 3.202 1.397.078.061.061.032.147.104l.653.647c.121.156.366.358.577.724.445.765.717 1.183.922 2.178.228 1.107.232 1.323.151 2.388-.184.052-.394.253-.589.352-.81.408-1.32.649-2.401.649-.815 0-1.475-.237-2.034-.517-1.774-.89-2.916-2.73-2.916-4.783Zm-.401-1.25c0 .078.022.062-.049.062 0 .45-.05.717-.05 1.185l.049.053a5.35 5.35 0 0 0 .231 1.618 5.992 5.992 0 0 0 2.349 3.203c1.254.851 2.96 1.101 4.428.636.468-.148 1.098-.555 1.293-.607-.007.313-.11.634-.193.907-.305 1.007-.548 1.509-1.107 2.344-.122-.059-.303-.061-.451-.1-.362-.093-.84-.288-1.049-.601-.122.082-.217.125-.3.25.124.463 1.101.757 1.5.851-.321.479-.737.807-1.137 1.212-.375.379-.921.664-1.43.921-1.564.789-3.642.583-5.075-.493l-.909-.891c-.869-1.195-1.103-2.125-1.051-3.601.007-.189.065-.336.086-.522.029-.265-.121-.125-.335-.227-.313.593-.212 1.719-.097 2.296.174.86.484 1.68 1.01 2.291.75.873 1.62 1.519 2.73 1.87.525.166 1.388.295 1.967.204.12-.02.224-.005.342-.009 1.167-.036 2.421-.589 3.309-1.292.077-.061.103-.109.18-.17.094-.073.098-.056.199-.151.25-.24 1.131-1.136 1.211-1.438.502 0 1.033-.203 1.45-.301-.016.751-.486 1.829-.732 2.569-.295.893-.64 1.547-1.069 2.28-.345.589-.803 1.086-1.286 1.564a4.397 4.397 0 0 1-.946.705c-.105.057-.195.113-.29.16a7.832 7.832 0 0 1-2.573.777c-.437.058-1.027.135-1.555.097-1.924-.141-3.843-.902-5.264-2.188-1.06-.961-1.851-2.083-2.47-3.379-1.128-2.363-1.08-5.948.1-8.268.529-1.039.524-1.098 1.234-2.068l.762-.887c1.162-1.16 2.585-2.058 4.17-2.532.34-.102 1.035-.28 1.419-.28-.237.448-.599 1.281-.601 1.95ZM13.939.747l.059-.05c.266-.001.468-.086.699-.1 1.581-.104 2.534.001 3.9.801.135.079.383.238.511.339.099.078.104.094.221.18.729.538 1.476 1.824 1.8 2.65.096.243.319 1.044.319 1.331-.191.05-.308.21-.469.33-.555.413-.684.767-.998 1.403-.334.676-1.254 4.004-1.483 4.917l-.434 1.566c-.041.113-.079.186-.106.293l-.16.641c-.247.058-.395.124-.606.194-.2.066-.446.15-.694.156.572-.854.95-2.604.95-3.7.284-.191.735-.829.96-1.14.057-.08.112-.185.17-.28.43-.704 1.079-2.419 1.069-3.18V6.94h-.349c-.07.121-.041.126-.07.288l-.211.888c-.14.469-.413 1.198-.635 1.615-.061.118-.081.128-.133.217l-.43.72c-.098.147-.2.342-.32.43l-.23-1.621c-.315-1.565-1.099-2.792-2.207-3.892-1.204-1.196-3.46-1.988-5.114-1.988.227-.34.862-1.135 1.162-1.387.638-.537 2.002-1.443 2.829-1.463Zm13.36 23.603h.4c1.236-.01 2.255-.139 3.324-.679.238-.12.463-.181.663-.336.384-.294.345-.202.85-.65.096-.085.173-.158.26-.239l.118-.134c.233-.266.623-.692.796-1.004.736-1.334 1.082-2.304 1.09-3.91.004-.75-.26-1.772-.583-2.467-.294-.629-.381-.671-.758-1.243-.167-.255-.487-.542-.722-.778-.517-.521-1.53-1.113-2.208-1.342l-.808-.192c-.267-.061-1.102-.116-1.412-.069-.798.123-1.185.299-1.843.658l-.605.395a5.037 5.037 0 0 0-.962 1.088c-.245-.117-.899-.293-1.25-.3 0-1.474.056-3.035-.051-4.499-.015-.204.001-.478.001-.689-.071 0-.05.016-.05-.063-.007-1.607-.483-3.727-1.437-4.963-.298-.387-.741-.978-1.133-1.267-.19-.139-.246-.214-.451-.35C19.58.69 18.172.046 16.948.047c-.602.001-.239-.104-1.103-.003-.342.041-.309-.029-1.102.099-1.135.183-2.537.616-3.455 1.344l-1.041.96c-.362.5-.484.512-.85 1.2-2.312 0-4.62 1.146-6.238 2.763L2.106 7.607c-.066.101-.104.168-.179.271-.462.634-.805 1.314-1.114 2.036l-.367.984c-.462 1.773-.577 2.904-.289 4.79.064.414.213 1.086.333 1.467l.506 1.294c.274.605.462.917.811 1.44l.369.531c.381.565 1.259 1.399 1.812 1.838 1.541 1.222 3.664 1.987 5.659 1.991.532 0 1.165-.08 1.646-.155a7.56 7.56 0 0 0 1.424-.376c.245-.095.419-.142.661-.239a6.38 6.38 0 0 0 1.907-1.243c.336-.332.674-.599 1.063-1.187.47-.711.583-.775 1.001-1.7.564-1.248.777-1.962 1.13-3.371.059-.235.164-.547.169-.78l2.651-1.1c0 2.678-.089 3.759.756 6.294.562 1.687 1.748 3.034 3.428 3.722.536.22 1.078.23 1.816.236M8.898 34.2c0 .123.035.121.131.168l.598.302c.287.169.545.252.855.396.086.041.122.053.207.091l.658.242c.487.203 1.32.452 1.861.59l1.041.209c.494.042 1.617.251 2.249.251l3.53-.17c.657-.117 1.437-.198 2.071-.431l3.515-1.434c.216-.107.325-.04.385-.265l-1.401-.449c-.665-.186-1.254-.386-1.995-.505l-.551-.1c-.181-.019-.273-.085-.503-.096l-1.703-.197c-.177-.021-.415.006-.599-.001-.225-.008-.305-.053-.599-.052l-1.2-.05c-.451.002-.748.052-1.2.051-.273-.001-.359.023-.553.046l-1.447.103c-.136.01-.188-.005-.331.02-.594.108-1.458.173-2.15.35l-.715.185c-.107.022-.159.029-.285.065l-1.681.519c-.049.025-.188.105-.188.162M12.698 29.499v.15l1.45.65c-.052.107-.386 1.371-.3 1.55.119-.079.18-.154.288-.262.223-.222.56-.72.812-.888l1.344.774c.151-.058-.389-.883-.484-1.034-.298-.475-.287-.344.054-.627.228-.19.828-.645.886-.863l-1.55.3-.554-1.296c-.092-.226 0-.101-.146-.154-.11.229-.069.439-.103.747-.139 1.245-.106.744-.867.883-.237.044-.583.07-.83.07M9.748 30.499c-.14.033-.255.066-.393.107-.118.036-.264.058-.401.1l-.591.158c-.19.095-.057-.026-.115.135l1.1.3c.157.04.224.086.4.1 0 .604-.101.997-.101 1.6.236-.019.283-.239.52-.63.494-.811.369-.777 1.197-.387.187.089.539.251.734.267-.014-.168-.09-.258-.187-.363l-.764-.937.741-.909c.15-.188.203-.088.21-.391-.399.093-1.153.551-1.5.551l-.728-1.174c-.095-.135-.023-.087-.172-.127-.088.183-.019.477 0 .751l.05.849ZM20.849 31.707l-.05-.058c-.01-.362-.295-1.153-.3-1.4l1.116-.483c.235-.107.262-.007.284-.267-.189 0-1.478-.09-1.544-.156-.095-.096-.151-1.303-.207-1.544-.195.052-.197.201-.384.665-.099.247-.261.549-.315.785-.265-.022-.542-.1-.79-.161l-.811-.139c.077.286 1.151.949 1.151 1.15 0 .163-.816 1.211-.667 1.359.066.066 1.194-.677 1.317-.759.266.178.543.55.838.862.145.153.093.216.362.238v-.092ZM24.049 30.2c-.335-.008-1.166-.461-1.551-.551.021.239.192.378.439.663l.512.637c-.153.289-.928 1.034-.951 1.3.194-.015.389-.101.572-.179.139-.058.096-.046.203-.097.135-.065.214-.085.356-.143.195-.08.166-.125.42-.13.031.118.121.253.189.36l.441.659c.187.286.108.237.27.28 0-1.053-.089-1.052-.1-1.549l1.55-.551c-.101-.024-.207-.047-.319-.081l-.862-.238c-.535-.146-.326-.024-.318-.68.004-.307.049-.489.049-.851 0-.191.015-.019-.05-.15-.171.115-.529.743-.659.941-.086.129-.152.191-.191.36M20.849 31.707l-.05-.058.05.058Z" style="fill:#353126"/>
</svg>